<svg xmlns="http://www.w3.org/2000/svg" viewBox="0 0 300 265" role="img" aria-labelledby="title">
  <title id="title">Piso7 Dental</title>
  <g fill="none" stroke="currentColor" stroke-linecap="round" stroke-linejoin="round">
    <circle cx="150" cy="65" r="49" stroke-width="3"/>
    <path d="M137 40.5c-10.4-1.1-17.7 6.1-16.4 16.7 1.1 9.2 8.1 15.2 7.9 25.3-.2 11.9 2.5 20.3 8.8 20.3 6.2 0 6.5-9.6 7.4-17.2.9-7.4 2.9-11.9 5.3-11.9s4.4 4.5 5.3 11.9c.9 7.6 1.2 17.2 7.4 17.2 6.3 0 9-8.4 8.8-20.3-.2-10.1 6.8-16.1 7.9-25.3 1.3-10.6-6-17.8-16.4-16.7-5.5.6-9.9 4.2-13 8.2-3.1-4-7.5-7.6-13-8.2Z" stroke-width="3.4"/>
  </g>
  <g fill="currentColor">
    <path d="M613.335-30Q467.334-30 366.001 45.833 264.667 121.667 211.834 251.083 159.001 380.5 159.001 541.667 159.001 705.333 212.167 833.917 265.334 962.5 369.084 1036.25 472.834 1110 624.334 1110 771.001 1110 874.751 1034.75 978.502 959.5 1033.252 830.583 1088.002 701.667 1088.002 541.667 1088.002 379.667 1032.585 250.25 977.168 120.833 871.418 45.417 765.668-30 613.335-30ZM139.667-480V1080H244.67V248.336H255.337V-480ZM606 80.337Q724.833 80.337 804.582 141.003 884.332 201.669 924.665 306.168 964.998 410.668 964.998 541.667 964.998 671.666 925.748 775.332 886.498 878.998 806.749 939.331 727 999.663 604.334 999.663 485.168 999.663 405.168 941.164 325.169 882.664 284.92 779.082 244.67 675.499 244.67 541.667 244.67 409.501 284.503 305.085 324.336 200.669 404.669 140.503 485.001 80.337 606 80.337Z" transform="translate(30.225 190) scale(.05 -.05)"/>
    <path d="M160 1298.332V1445.001H275.337V1298.332ZM160 0V1080H275.337V0Z" transform="translate(88.625 190) scale(.05 -.05)"/>
    <path d="M538.667-28.333Q352.167-28.333 230.417 50.834 108.667 130.001 80 270.668L198.004 291.002Q223.337 195.002 316.003 137.836 408.669 80.67 543.668 80.67 678.499 80.67 757.249 137.919 835.998 195.168 835.998 293.667 835.998 348.167 811.664 382.666 787.331 417.166 715.165 446.166 642.999 475.165 500.999 513.665 350.667 554.332 266.25 594.248 181.833 634.165 147.25 685.165 112.667 736.165 112.667 809.999 112.667 898.999 164 966.75 215.333 1034.5 306.417 1072.25 397.5 1110 517.667 1110 638.001 1110 733.918 1070.583 829.834 1031.167 888.668 960.417 947.501 889.667 957.334 796.667L839.331 774.999Q822.331 879.165 734.415 939.581 646.5 999.997 513.668 1000.997 388.669 1003.497 309.836 951.831 231.004 900.165 231.004 815.666 231.004 768.5 258.42 734.917 285.837 701.334 356.087 673.001 426.336 644.667 554.003 612.667 709.502 573.168 797.335 531.084 885.168 489.001 921.251 432.418 957.335 375.834 957.335 292.667 957.335 142.5 845.668 57.084 734.001-28.333 538.667-28.333Z" transform="translate(110.375 190) scale(.05 -.05)"/>
    <path d="M582.668-30Q422.168-30 310.001 43 197.834 116 138.917 244.917 80 373.833 80 541.667 80 711.5 140 839.583 200 967.667 312.584 1038.833 425.168 1110 582.668 1110 744.001 1110 856.251 1037.417 968.502 964.833 1027.085 836.75 1085.669 708.667 1085.669 541.667 1085.669 371.167 1026.585 242.667 967.502 114.167 854.835 42.083 742.168-30 582.668-30Zm0 112.337Q774.5 82.337 868.582 210.003 962.665 337.668 962.665 541.667 962.665 749.832 867.999 873.747 773.333 997.663 582.668 997.663 453.669 997.663 369.586 939.33 285.503 880.997 244.254 778.332 203.004 675.666 203.004 541.667 203.004 334.168 299.337 208.252 395.669 82.337 582.668 82.337Z" transform="translate(162.325 190) scale(.05 -.05)"/>
    <path d="M218.667 0 759.332 1325.663H80V1440H883.003V1325.663L342.671 0Z" transform="translate(220.625 190) scale(.05 -.05)"/>
    <path d="M140 0V1440H569.334Q593.834 1440 650.167 1439 706.501 1438 758 1430.333 919.501 1407.667 1026.751 1308.5 1134.001 1209.333 1187.002 1056.583 1240.002 903.833 1240.002 720 1240.002 535.333 1187.002 382.583 1134.001 229.833 1026.751 131.083 919.501 32.333 758 9.667 707.334 2.833 649.751 1.417 592.167 0 569.334 0Zm121.004 112.67H569.334Q613.834 112.67 661.917 115.42 710 118.17 743.667 124.337 877.666 147.503 959.666 230.253 1041.665 313.003 1079.331 439.585 1116.998 566.168 1116.998 720 1116.998 874.666 1079.165 1001.248 1041.332 1127.831 959.249 1210.247 877.166 1292.663 743.667 1315.663 710 1321.997 660.667 1324.663 611.334 1327.33 569.334 1327.33H261.004Z" transform="translate(39.075 258) scale(.025 -.025)"/>
    <path d="M140 0V1440H1030.001V1327.663H255.337V781.336H910.001V668.999H255.337V112.337H1030.001V0Z" transform="translate(80.35 258) scale(.025 -.025)"/>
    <path d="M140 0V1440H256.004L1090.332 205.007V1440H1206.336V0H1090.332L256.004 1236.66V0Z" transform="translate(116.8 258) scale(.025 -.025)"/>
    <path d="M535.665 0V1327.663H20V1440H1166.667V1327.663H651.002V0Z" transform="translate(158.65 258) scale(.025 -.025)"/>
    <path d="M40 0 549.998 1440H692.671L1202.67 0H1080.999L590.668 1379.997H649.335L161.671 0Zm210.668 361.665V470.669H990.668V361.665Z" transform="translate(196.525 258) scale(.025 -.025)"/>
    <path d="M160 0V1440H275.337V112.337H975.335V0Z" transform="translate(235.8 258) scale(.025 -.025)"/>
  </g>
</svg>
