<svg xmlns="http://www.w3.org/2000/svg" viewBox="0 0 112 112" role="img" aria-labelledby="title">
  <title id="title">Piso7 Dental</title>
  <g fill="none" stroke="currentColor" stroke-linecap="round" stroke-linejoin="round">
    <circle cx="56" cy="56" r="48" stroke-width="2.5"/>
    <path d="M45 84c-6 0-7.8-6.5-6.5-12.5 1.3-5.8-3.3-11.9-6.2-19.1-3-7.2-.2-14.5 6.7-16.9 5.7-1.9 12.1 2 17 8.6 4.9-6.6 11.3-10.5 17-8.6 6.9 2.4 9.7 9.7 6.7 16.9-2.9 7.2-7.5 13.3-6.2 19.1C74.8 77.5 73 84 67 84c-4.6 0-5.5-5.2-6.3-9.6-.8-4.2-3-6.9-4.7-6.9s-3.9 2.7-4.7 6.9C50.5 78.8 49.6 84 45 84Z" stroke-width="3.4"/>
  </g>
</svg>
