<svg xmlns="http://www.w3.org/2000/svg" viewBox="0 0 64 64">
  <circle cx="32" cy="32" r="32" fill="#17130e" />
  <circle cx="32" cy="30" r="16.5" fill="none" stroke="#ecd6a4" stroke-width="1.3" />
  <path
    d="M28.9 39.3C26.6 39.3 25.7 36.6 26.3 34.2C26.9 31.7 24.5 28.6 23.3 25.2C22.1 21.7 23.3 18.1 26.7 17.3C29.1 16.4 31.5 17.9 33.1 20.1C34.7 17.9 37.1 16.4 39.5 17.3C42.9 18.1 44.1 21.7 42.9 25.2C41.7 28.6 39.3 31.7 39.9 34.2C40.5 36.6 39.6 39.3 37.3 39.3C35.5 39.3 35.2 37 34.9 34.7C34.6 32.9 33.7 31.7 33.1 31.7C32.5 31.7 31.6 32.9 31.3 34.7C31 37 30.7 39.3 28.9 39.3Z"
    fill="none"
    stroke="#ecd6a4"
    stroke-width="1.6"
    stroke-linecap="round"
    stroke-linejoin="round"
  />
</svg>
